<svg xmlns="http://www.w3.org/2000/svg" viewBox="0 0 1513.76 449.5"><defs><style>.cls-1{fill:#9c3848;}.cls-2{fill:#5c8001;}.cls-3{fill:#47a8bd;}.cls-4{fill:#fb6107;}.cls-5{fill:#ffad69;}.cls-6{fill:#f5dc01;}</style></defs><title>Asset 1.svg</title><g id="Layer_2" data-name="Layer 2"><g id="Layer_1-2" data-name="Layer 1"><path class="cls-1" d="M134.8,106.4,196.3,0l61.5,106.4Z"/><path class="cls-2" d="M392.6,112.3,331.1,218.7,269.6,112.3Z"/><path class="cls-3" d="M122.9,112.3,61.4,218.7.1,112.3Z"/><path class="cls-4" d="M0,337.1,61.5,230.8,123,337.2H0Z"/><path class="cls-5" d="M269.7,337.1l61.5-106.4,61.5,106.4Z"/><path class="cls-6" d="M257.8,343.1,196.3,449.5,134.8,343.1Z"/><path d="M566,51.32H493v24.3h23.5v73.6h26V75.62h23.4V51.32Z"/><path d="M632.14,51.32V88H603V51.32H577v97.9h26v-36.9h29.1v36.9H658V51.32Z"/><path d="M738.54,75.52V51.32H675v97.9h63.5v-24.3h-37.8v-14h31.1V89.22h-31.1V75.52Z"/><path d="M673.76,381l-68.1-101.3,60.6-96.4h-60.4L560.06,257v-73.7h-52.4V381h52.4v-75.2l50,75.2Z"/><path d="M792.59,386c61.6,0,108.7-44.8,108.7-103.7,0-59.4-47.1-104.4-108.6-104.4s-108.6,45.1-108.6,104.5C684.09,341.23,731.09,386,792.59,386Zm.1-50.2c-31.4,0-55.5-23.4-55.5-53.9s24.1-54.1,55.5-54.1,55.5,23.6,55.5,54.1S824.09,335.83,792.69,335.83Z"/><path d="M979.54,331.73V183.23H927V381h128.2v-49.3Z"/><path d="M1130.09,331.73V183.23h-52.5V381h128.2v-49.3Z"/><path d="M1356.34,232v-48.8h-128.2V381h128.2v-49.2H1280v-28.3h62.8v-43.8H1280V232Z"/><path d="M1438.06,331.73V183.23h-52.5V381h128.2v-49.3Z"/></g></g></svg>